<?xml version="1.0" standalone="no"?>
<!DOCTYPE svg PUBLIC "-//W3C//DTD SVG 20010904//EN"
 "http://www.w3.org/TR/2001/REC-SVG-20010904/DTD/svg10.dtd">
<svg version="1.0" xmlns="http://www.w3.org/2000/svg"
 width="512.000000pt" height="512.000000pt" viewBox="0 0 512.000000 512.000000"
 preserveAspectRatio="xMidYMid meet">
<metadata>
Created by potrace 1.14, written by Peter Selinger 2001-2017
</metadata>
<g transform="translate(0.000000,512.000000) scale(0.100000,-0.100000)"
fill="#000000" stroke="none">
<path d="M2477 4954 c-1 -1 -45 -4 -97 -8 -91 -6 -123 -9 -200 -22 -19 -4 -48
-8 -65 -11 -60 -9 -225 -54 -323 -87 -265 -90 -513 -226 -734 -402 -106 -84
-133 -126 -125 -195 7 -61 30 -93 85 -120 67 -33 131 -16 204 54 33 32 173
131 254 180 210 126 429 212 669 263 195 42 551 51 725 19 8 -1 35 -6 60 -10
59 -9 205 -48 301 -79 222 -73 458 -203 653 -363 98 -79 134 -93 197 -74 96
29 141 143 88 224 -35 53 -238 208 -389 297 -195 116 -452 220 -650 266 -208
47 -355 65 -548 68 -57 1 -104 1 -105 0z"/>
<path d="M1049 4006 c-2 -2 -22 -6 -44 -10 -283 -40 -563 -306 -716 -681 -43
-107 -104 -325 -114 -414 -4 -30 -9 -63 -12 -75 -3 -12 -7 -118 -9 -236 -3
-229 11 -361 56 -542 126 -498 419 -844 780 -922 140 -31 326 -4 461 65 205
104 404 339 508 600 l35 86 567 0 567 0 17 -46 c10 -25 39 -89 65 -142 149
-300 379 -502 639 -563 71 -17 233 -15 301 3 327 86 578 362 720 791 36 107
65 226 77 310 2 19 8 62 13 95 10 77 11 408 0 466 -4 24 -11 68 -14 98 -25
216 -132 506 -255 691 -82 126 -219 261 -320 318 -97 55 -142 73 -241 96 -56
13 -266 15 -1571 16 -828 0 -1508 -2 -1510 -4z m3021 -310 c19 -3 68 -22 107
-42 136 -66 268 -224 353 -422 38 -88 81 -223 96 -297 4 -22 8 -42 9 -45 3 -9
17 -118 21 -157 5 -56 5 -312 -1 -353 -2 -19 -7 -57 -11 -85 -16 -135 -82
-352 -144 -476 -42 -84 -123 -194 -187 -255 -137 -132 -295 -177 -444 -125
-78 26 -133 63 -210 140 -106 106 -175 225 -250 429 -20 57 -45 113 -56 124
-48 53 -22 51 -793 51 -641 0 -719 -2 -747 -16 -46 -24 -69 -58 -99 -150 -107
-326 -310 -556 -523 -595 -217 -39 -446 132 -591 440 -39 84 -93 251 -104 324
-4 21 -8 46 -11 54 -24 87 -34 319 -21 485 39 488 293 909 584 968 44 9 430
12 1523 11 805 -1 1480 -4 1499 -8z"/>
<path d="M1238 3363 c-25 -6 -31 -41 -32 -183 l-1 -125 -142 -1 c-102 0 -146
-4 -157 -13 -13 -11 -16 -38 -16 -156 0 -184 -9 -175 176 -175 l140 0 0 -140
c0 -112 3 -144 15 -156 23 -22 295 -22 317 0 13 12 16 43 16 156 l0 140 136 0
c188 0 180 -8 180 174 0 117 -3 146 -15 156 -11 9 -59 14 -153 15 -75 2 -140
3 -143 4 -3 0 -6 54 -6 119 -1 168 -1 169 -20 178 -19 8 -265 14 -295 7z"/>
<path d="M3663 3345 c-154 -77 -108 -304 65 -320 57 -5 133 35 161 85 84 149
-73 311 -226 235z"/>
<path d="M3386 3048 c-53 -11 -91 -41 -115 -91 -37 -77 -23 -147 42 -204 87
-76 225 -42 270 67 52 124 -63 257 -197 228z"/>
<path d="M4019 3050 c-77 -21 -126 -76 -133 -150 -14 -156 163 -246 282 -144
22 19 46 51 52 70 24 71 -6 160 -67 199 -31 20 -101 33 -134 25z"/>
<path d="M3658 2720 c-122 -65 -118 -244 6 -301 168 -76 322 112 211 257 -48
63 -144 82 -217 44z"/>
<path d="M1831 1309 c-97 -21 -152 -131 -108 -216 53 -102 347 -265 562 -312
104 -23 134 -26 275 -26 154 1 188 4 315 36 198 50 473 208 520 300 33 63 9
156 -49 194 -63 42 -132 34 -202 -21 -132 -104 -243 -156 -404 -189 -87 -18
-221 -23 -307 -11 -140 20 -307 87 -410 165 -104 79 -135 92 -192 80z"/>
<path d="M1022 1015 c-85 -38 -117 -133 -71 -214 42 -74 310 -265 524 -373
346 -175 689 -258 1085 -261 304 -3 643 65 935 188 250 105 635 362 679 453
37 75 5 166 -71 203 -70 34 -111 22 -219 -64 -247 -197 -465 -310 -774 -401
-30 -9 -66 -18 -80 -21 -215 -42 -283 -49 -470 -49 -151 0 -256 8 -375 31
-208 38 -433 117 -604 211 -35 19 -74 40 -85 46 -53 28 -254 171 -276 196 -3
3 -21 18 -41 33 -45 34 -111 43 -157 22z"/>
</g>
</svg>
